<?xml version="1.0" encoding="utf-8"?>
<!-- Generator: Adobe Illustrator 21.0.0, SVG Export Plug-In . SVG Version: 6.00 Build 0)  -->
<svg version="1.1"
	 id="svg47772" inkscape:version="0.92.3 (2405546, 2018-03-11)" xmlns:cc="http://creativecommons.org/ns#" xmlns:dc="http://purl.org/dc/elements/1.1/" xmlns:inkscape="http://www.inkscape.org/namespaces/inkscape" xmlns:rdf="http://www.w3.org/1999/02/22-rdf-syntax-ns#" xmlns:sodipodi="http://sodipodi.sourceforge.net/DTD/sodipodi-0.dtd" xmlns:svg="http://www.w3.org/2000/svg"
	 xmlns="http://www.w3.org/2000/svg" xmlns:xlink="http://www.w3.org/1999/xlink" x="0px" y="0px" viewBox="0 0 28.6 39.5"
	 style="enable-background:new 0 0 28.6 39.5;" xml:space="preserve">
<style type="text/css">
	.st0{fill:#7788FF;}
</style>
<sodipodi:namedview  bordercolor="#666666" borderopacity="1.0" fit-margin-bottom="0" fit-margin-left="0" fit-margin-right="0" fit-margin-top="0" id="base" inkscape:current-layer="layer1" inkscape:cx="22.36801" inkscape:cy="50.323218" inkscape:document-units="mm" inkscape:pageopacity="0.0" inkscape:pageshadow="2" inkscape:window-height="986" inkscape:window-maximized="1" inkscape:window-width="1920" inkscape:window-x="-11" inkscape:window-y="-11" inkscape:zoom="3.959798" pagecolor="#ffffff" showgrid="false">
	</sodipodi:namedview>
<g id="layer1" transform="translate(-40.190844,-111.96343)" inkscape:groupmode="layer" inkscape:label="Capa 1">
	<g id="g276" transform="matrix(0.35277777,0,0,-0.35277777,45.148215,125.339)">
		<path id="path278" inkscape:connector-curvature="0" class="st0" d="M25.8-69.6c24.8,0,42,22.6,35.2,46.4
			c-2.4,8.4-7.1,15.6-11.8,22.8c-7,10.6-13.9,21.3-20.9,32c-1.5,2.3-3.2,2.3-4.7-0.1c-4.3-7.1-8.7-14.1-13-21.1
			c-5-8-10.3-15.8-14.9-24c-4.3-7.6-6-15.9-4.9-24.9C-7-56.6,7.4-69.5,25.8-69.6 M21.7-74.1c-2.3,0.6-4.8,1.1-7.1,1.7
			c-1.8,0.5-3.6,1-5.2,1.7c-14,6-21,17.2-23.1,32c-1.6,11.7,2,22.2,7.9,31.9c5.7,9.3,12,18.3,17.9,27.5c2.5,4,5,8,7.2,12.2
			c1.3,2.4,2.9,4.2,5.5,5h3c2.5-1.2,3.9-3.3,5.3-5.5C39.6,22.2,46.3,12.1,53,2.1C58.3-6,63.4-14.2,65.8-23.8
			c5.4-21.7-7.4-42.8-28.2-48.6c-2.1-0.6-4.2-1-6.5-1.3c-0.5-0.1-0.9-0.3-1.4-0.4H21.7z"/>
	</g>
</g>
<path class="st0" d="M12.6,39.5c-0.8-0.2-1.7-0.4-2.5-0.6c-0.6-0.2-1.3-0.3-1.8-0.6C3.3,36.2,0.9,32.2,0.1,27
	c-0.6-4.1,0.7-7.8,2.8-11.2c2-3.3,4.2-6.4,6.3-9.7c0.9-1.4,1.8-2.8,2.5-4.3c0.5-0.8,1-1.5,1.9-1.8h1.1c0.9,0.4,1.4,1.2,1.9,2
	c2.3,3.6,4.7,7.1,7,10.7c1.9,2.9,3.7,5.8,4.5,9.1c1.9,7.7-2.6,15.1-9.9,17.1c-0.7,0.2-1.5,0.4-2.3,0.4c-0.2,0-0.3,0.1-0.5,0.1H12.6z
	"/>
</svg>
